<svg width="96" height="96" viewBox="0 0 96 96" fill="none" xmlns="http://www.w3.org/2000/svg">
<path d="M91.1135 71.6479L92.5005 33.4827L68.2527 27.9827L47.5918 41.8044L57.2048 70.1653L91.1135 71.6479Z" fill="url(#paint0_linear)"/>
<path d="M85.7092 51.178L92.5005 33.4824L68.6352 22.9607L47.5918 41.8041L85.7092 51.178Z" fill="url(#paint1_linear)"/>
<path d="M60.7913 92.5L91.1131 71.6478L18.2261 39.2695L4.5 78.2957L60.7913 92.5Z" fill="url(#paint2_linear)"/>
<path d="M4.5 38.1217L52.9957 75.0913L85.7088 51.1783L48.5479 9.95218L16.1696 4.5L4.5 38.1217Z" fill="url(#paint3_linear)"/>
<path d="M76 21H21V76H76V21Z" fill="url(#paint4_linear)"/>
<path d="M48.3903 65.55H27.8203V68.96H48.3903V65.55Z" fill="white"/>
<path d="M27.875 28.2874H36.0921C40.9152 28.2874 43.7733 31.1455 43.7733 35.254V35.3433C43.7733 39.9877 40.2006 42.3993 35.6455 42.3993H32.2515V48.3835H27.875V28.2874ZM35.8242 38.3801C38.057 38.3801 39.3075 37.0403 39.3075 35.3433V35.254C39.3075 33.2891 37.9677 32.2172 35.7348 32.2172H32.3408V38.3801H35.8242Z" fill="white"/>
<path d="M48.5004 48.7677C46.9317 48.7677 45.5925 48.4617 44.5404 47.8686C43.4691 47.2756 42.5891 46.5677 41.9004 45.726L44.6934 42.6077C45.2674 43.239 45.8604 43.7364 46.4343 44.0999C47.0274 44.4634 47.6778 44.6356 48.3856 44.6356C49.2274 44.6356 49.897 44.3677 50.3751 43.8321C50.8534 43.2964 51.1021 42.4547 51.1021 41.2686V28.2407H55.6551V41.4599C55.6551 42.6651 55.483 43.7173 55.1578 44.6164C54.8325 45.4964 54.3543 46.2617 53.7421 46.8739C53.13 47.486 52.3647 47.9643 51.4847 48.2704C50.6047 48.6147 49.61 48.7677 48.5004 48.7677Z" fill="white"/>
<defs>
<linearGradient id="paint0_linear" x1="79.653" y1="65.6805" x2="66.9033" y2="28.8485" gradientUnits="userSpaceOnUse">
<stop offset="0.000825369" stop-color="#FF318C"/>
<stop offset="1" stop-color="#FE6C54"/>
</linearGradient>
<linearGradient id="paint1_linear" x1="82.9698" y1="25.7958" x2="71.7822" y2="40.0041" gradientUnits="userSpaceOnUse">
<stop stop-color="#FF546A"/>
<stop offset="0.7814" stop-color="#FE764A"/>
</linearGradient>
<linearGradient id="paint2_linear" x1="78.3382" y1="82.9575" x2="14.1314" y2="59.79" gradientUnits="userSpaceOnUse">
<stop offset="0.016776" stop-color="#FF318C"/>
<stop offset="0.8106" stop-color="#6B57FF"/>
</linearGradient>
<linearGradient id="paint3_linear" x1="29.4159" y1="65.8998" x2="56.7222" y2="17.6704" gradientUnits="userSpaceOnUse">
<stop offset="0.3305" stop-color="#FF318C"/>
<stop offset="0.9422" stop-color="#FDB60D"/>
</linearGradient>
<linearGradient id="paint4_linear" x1="48.4988" y1="7.63009" x2="48.4988" y2="56.9541" gradientUnits="userSpaceOnUse">
<stop offset="0.0842986" stop-color="#878585"/>
<stop offset="0.5377"/>
</linearGradient>
</defs>
</svg>
